<svg xmlns="http://www.w3.org/2000/svg" width="240" height="24"><path fill="#FFF" d="M36 18h9c-.63 1.788-2.447 3-4.5 3s-3.87-1.212-4.5-3zm122.372 6l-4.347-6.955h-4.338V24H144V0h9.997c5.687 0 9.49 3.248 9.49 8.435 0 3.14-1.448 5.672-3.869 7.152L165 23.99l-6.628.01zm-8.685-12.32h4.21c2.186 0 3.9-1.27 3.9-3.245 0-1.976-1.714-3.177-3.9-3.177h-4.21v6.423zm24.23-6.489v4.377h10.573v5.083h-10.573v4.168H186V24h-18V0h18v5.181l-12.083.01zM210 11.93c0 7.127-5.022 12.07-12.042 12.07H189V0h8.958C204.982 0 210 4.903 210 11.93zm-5.614 0c0-3.7-2.789-6.566-6.421-6.566h-3.417v13.272h3.417c3.632 0 6.42-2.893 6.42-6.706zM219 0v24h-6V0h6zm21 5.33h-6.29V24h-5.428V5.33H222V0h18v5.33zm-105.177 9.916L141 15.24c-1.21 5.28-5.621 8.761-11.56 8.761-7.087 0-12.44-5.027-12.44-11.996C117 5.034 122.353 0 129.44 0c5.934 0 10.352 3.485 11.56 8.766h-6.184c-.904-2.134-2.78-3.393-5.411-3.393-3.837 0-6.489 2.796-6.489 6.638 0 3.84 2.66 6.627 6.496 6.627 2.63 0 4.508-1.254 5.411-3.392zM21 0v24h-5.738v-9.002H5.781V24H0V0h5.78v9.636h9.478V0H21zm63 24h-5.529V11.967l-4.937 8.224v.035h-3.068v-.035l-4.971-8.296.03 12.105H60V0h4.112l7.878 12.813L79.883 0h4.112L84 24zm8.914-18.811v4.377h10.58v5.085h-10.58v4.168H105V24H87V0h18v5.181l-12.086.008zM40.506 0C49.616 0 57 7.018 57 15.685A15.038 15.038 0 0154.497 24h-7.96a9.981 9.981 0 003.465-11.153 10.017 10.017 0 00-9.5-6.821 10.017 10.017 0 00-9.5 6.82A9.981 9.981 0 0034.47 24h-7.96A15.024 15.024 0 0124 15.685C24 7.018 31.387 0 40.506 0z"/></svg>